<svg xmlns="http://www.w3.org/2000/svg" xmlns:xlink="http://www.w3.org/1999/xlink" width="123" height="97" viewBox="0 0 123 97">
  <defs>
    <filter id="ch-812-008-25mm-spl-2-pole-wire-connector-with-spring-lock-lever-for-2-wire-line-connection-400x400" x="0" y="0" width="123" height="97" filterUnits="userSpaceOnUse">
      <feOffset input="SourceAlpha"/>
      <feGaussianBlur stdDeviation="3" result="blur"/>
      <feFlood flood-opacity="0.11"/>
      <feComposite operator="in" in2="blur"/>
      <feComposite in="SourceGraphic"/>
    </filter>
  </defs>
  <g id="default_thumbnail_image" data-name="default thumbnail image" transform="translate(-503.001 -1016)">
    <g transform="matrix(1, 0, 0, 1, 503, 1016)" filter="url(#ch-812-008-25mm-spl-2-pole-wire-connector-with-spring-lock-lever-for-2-wire-line-connection-400x400)">
      <g id="ch-812-008-25mm-spl-2-pole-wire-connector-with-spring-lock-lever-for-2-wire-line-connection-400x400-2" data-name="ch-812-008-25mm-spl-2-pole-wire-connector-with-spring-lock-lever-for-2-wire-line-connection-400x400" transform="translate(9 9)" fill="#f0f1f3" stroke="#fff" stroke-width="1">
        <rect width="105" height="79" rx="5" stroke="none"/>
        <rect x="0.5" y="0.5" width="104" height="78" rx="4.5" fill="none"/>
      </g>
    </g>
    <g id="icon" transform="translate(549.825 1053.182)" opacity="0.58">
      <path id="Path_4634" data-name="Path 4634" d="M-733.712-1205.4a1.8,1.8,0,0,0-1.568-.946c-.076,0-.153,0-.229,0q-12.64,0-25.28,0a1.972,1.972,0,0,0-1.526.589,1.889,1.889,0,0,0-.512,1.357q.005,4.156,0,8.312,0,5.26,0,10.519a1.877,1.877,0,0,0,2.065,2.058h25.022a1.952,1.952,0,0,0,2.273-1.553v-19.726A4.551,4.551,0,0,0-733.712-1205.4Zm-1.636,14.442c-.105-.091-.18-.153-.252-.218q-1.687-1.532-3.374-3.064a1.292,1.292,0,0,0-1.322-.335,1.931,1.931,0,0,0-.716.445c-1.141,1.116-2.263,2.25-3.39,3.38a3.024,3.024,0,0,0-.217.279c-.15-.176-.259-.3-.367-.433q-3.449-4.121-6.9-8.242a1.4,1.4,0,0,0-2.325-.017q-3.258,3.776-6.507,7.559c-.06.069-.123.135-.223.243v-13.111h25.591Z" transform="translate(762.827 1206.349)" fill="#808b91" stroke="rgba(0,0,0,0)" stroke-width="1"/>
      <path id="Path_4635" data-name="Path 4635" d="M-485.39-1142.295a2.564,2.564,0,0,0,2.564-2.546,2.572,2.572,0,0,0-2.568-2.574,2.573,2.573,0,0,0-2.564,2.549A2.565,2.565,0,0,0-485.39-1142.295Z" transform="translate(507.531 1151.611)" fill="#808b91" stroke="rgba(0,0,0,0)" stroke-width="1"/>
    </g>
  </g>
</svg>
