<svg xmlns="http://www.w3.org/2000/svg" width="16" height="16" viewBox="0 0 16 16">
  <g id="info_icon" transform="translate(-0.125 -0.125)">
    <path id="Path_394" data-name="Path 394" d="M8.125.125a8,8,0,1,0,8,8A8,8,0,0,0,8.125.125Zm0,14.667a6.667,6.667,0,1,1,6.667-6.667A6.667,6.667,0,0,1,8.125,14.792Z" fill="#154787"/>
    <path id="Path_395" data-name="Path 395" d="M24.03,13.476a.792.792,0,0,0,.526-.2.83.83,0,0,0,.288-.491.561.561,0,0,0-.127-.491.587.587,0,0,0-.466-.2.781.781,0,0,0-.526.2.809.809,0,0,0-.288.491.616.616,0,0,0,.135.491A.568.568,0,0,0,24.03,13.476Z" transform="translate(-15.497 -7.953)" fill="#154787"/>
    <path id="Path_396" data-name="Path 396" d="M21.7,22.662c-.018.025-.035.047-.052.072a3.674,3.674,0,0,1-1,.882.02.02,0,0,0-.008,0c-.044.023-.089.041-.134.062a1.185,1.185,0,0,1-.3.063c-.114-.015-.175-.094-.175-.245a4.735,4.735,0,0,1,.11-.739l.085-.372.347-1.665c.056-.283.086-.441.093-.472l.076-.389a3.393,3.393,0,0,0,.067-.478.629.629,0,0,0-.1-.354.205.205,0,0,0-.022-.041c-.009-.011-.018-.02-.027-.03a.258.258,0,0,0-.029-.033.686.686,0,0,0-.381-.163l0,0a2.756,2.756,0,0,0-1.552.564l-.034.023a4.194,4.194,0,0,0-.591.446,1.735,1.735,0,0,0-.25.255l0,0h0a.491.491,0,0,0-.121.282c0,.066.054.132.16.2a3.4,3.4,0,0,1,1.067-.848,2.251,2.251,0,0,1,.292-.1.265.265,0,0,1,.216.031.294.294,0,0,1,.076.216,1.712,1.712,0,0,1-.043.343l-.068.321-.084.4-.33,1.584a12.061,12.061,0,0,0-.254,1.467q0,.564.618.565a1.964,1.964,0,0,0,.575-.094h0l.039-.014c.033-.01.065-.023.1-.035a4.193,4.193,0,0,0,1.724-1.275c.016-.02.03-.038.044-.056l.017-.024h0a.341.341,0,0,0,.073-.169C21.922,22.785,21.845,22.725,21.7,22.662Z" transform="translate(-11.687 -12.392)" fill="#154787"/>
  </g>
</svg>
