<svg xmlns="http://www.w3.org/2000/svg" width="12.456" height="14.219" viewBox="0 0 12.456 14.219">
  <g id="Rotate_icon" data-name="Rotate icon" transform="translate(-120.18 -721.223)">
    <g id="Clockwise" transform="translate(120.684 721.929)">
      <path id="Path_388" data-name="Path 388" d="M255.541,311.342h-1.215a4.478,4.478,0,0,1-2.014,4.353,4.363,4.363,0,0,1-3.232.666,4.571,4.571,0,0,1-3.7-4.544,4.441,4.441,0,0,1,3.759-4.228l-.709.591.872.927,2.233-2.244-2.227-2.2-.857.866.8.633-.062.095a5.708,5.708,0,0,0-4.56,3.421,5.4,5.4,0,0,0-.192,4.045,5.71,5.71,0,0,0,11.105-2.384Z" transform="translate(-244.133 -304.666)" fill="#333" stroke="rgba(0,0,0,0)" stroke-width="1"/>
    </g>
  </g>
</svg>
