<svg xmlns="http://www.w3.org/2000/svg" width="10.404" height="11.972" viewBox="0 0 10.404 11.972">
  <path id="Sourcing_icon" d="M116.648,3.135a6.354,6.354,0,0,0-.776-1.008.384.384,0,0,0-.543.543,4.425,4.425,0,0,1-.039,6.283,4.507,4.507,0,0,1-6.322,0,4.438,4.438,0,0,1,.078-6.322,4.4,4.4,0,0,1,3.1-1.28h.155l-1.086,1.28a.412.412,0,0,0,.039.543.375.375,0,0,0,.543-.039l1.551-1.862a.365.365,0,0,0,.155-.349.293.293,0,0,0-.155-.272L111.412-.9a.375.375,0,0,0-.543.039.412.412,0,0,0,.039.543l1.086.892a5.2,5.2,0,1,0,5.353,5.042,4.812,4.812,0,0,0-.7-2.482Z" transform="translate(-106.947 0.998)" fill="#fff"/>
</svg>
