<svg xmlns="http://www.w3.org/2000/svg" width="15.52" height="15.522" viewBox="0 0 15.52 15.522">
  <path id="Call_icon" d="M92.757,18.288l-1.623-1.623a1.593,1.593,0,0,0-2.252,0l-1.257,1.257a.767.767,0,0,1-1.08,0l-3.572-3.573a.764.764,0,0,1,0-1.08l1.257-1.257a1.594,1.594,0,0,0,0-2.252L82.607,8.138a1.562,1.562,0,0,0-1.317-.455,4.48,4.48,0,0,0-2.766,1.175,3.068,3.068,0,0,0-.815,2.348A8.313,8.313,0,0,0,79.054,15h0a20.233,20.233,0,0,0,3.032,3.814A20.221,20.221,0,0,0,85.9,21.843a8.314,8.314,0,0,0,3.791,1.344q.089,0,.175,0a3.014,3.014,0,0,0,2.173-.818,4.481,4.481,0,0,0,1.175-2.766,1.562,1.562,0,0,0-.456-1.318Zm-.508,1.2c-.223,1.836-1,2.731-2.386,2.731-.044,0-.089,0-.135,0A7.5,7.5,0,0,1,86.4,21.01h0a19.247,19.247,0,0,1-3.626-2.884A19.231,19.231,0,0,1,79.886,14.5a7.5,7.5,0,0,1-1.207-3.332c-.059-1.466.833-2.291,2.728-2.521a.587.587,0,0,1,.514.177l1.624,1.624a.623.623,0,0,1,0,.879l-1.257,1.257h0a1.735,1.735,0,0,0,0,2.451l3.572,3.572a1.737,1.737,0,0,0,2.451,0l1.257-1.257h0a.623.623,0,0,1,.879,0l1.623,1.623a.588.588,0,0,1,.177.514Z" transform="translate(-77.706 -7.671)" fill="#666"/>
</svg>
