<svg xmlns="http://www.w3.org/2000/svg" width="19.67" height="15.4" viewBox="0 0 19.67 15.4">
  <path id="Email_icon" d="M85.562,75.86a2.952,2.952,0,0,1-2.954-2.942c0-.087,0-.173.012-.258,0-.024,0-.048.007-.072s.006-.05.01-.074.006-.046.01-.069.009-.05.013-.074.008-.045.013-.068.011-.047.016-.07.011-.047.017-.07.012-.041.018-.062.015-.052.023-.077l.016-.048c.01-.03.02-.059.031-.089l.01-.027A2.973,2.973,0,0,1,85,70.029H85c.043-.008.086-.016.129-.022l.031,0,.108-.013.065,0,.079-.006c.049,0,.1,0,.147,0a2.942,2.942,0,1,1,0,5.885ZM70.752,62.77l6.478,5.207a1.16,1.16,0,0,0,1.444,0l6.51-5.232v6.5h0l-.131.016-.033,0-.122.02-.037.007-.091.019-.044.01-.1.025-.063.017-.049.014-.126.039-.019.006a3.7,3.7,0,0,0-2.342,2.39l0,.01q-.012.037-.022.074c-.006.02-.011.04-.017.061s-.015.055-.021.083-.013.054-.019.081l-.01.044q-.012.059-.023.119l0,.014H70.752Zm13.712-.41L78.2,67.393a.4.4,0,0,1-.5,0L71.442,62.36Zm1.474,6.884V62.36a.746.746,0,0,0-.245-.552.369.369,0,0,0-.061-.05.751.751,0,0,0-.447-.148H70.752a.751.751,0,0,0-.487.179.379.379,0,0,0-.039.035A.746.746,0,0,0,70,62.36V72.3a.753.753,0,0,0,.753.75h11.1a3.707,3.707,0,1,0,4.082-3.8Zm.737,2.512-1.6,1.592-.759-.778a.376.376,0,1,0-.541.523L84.8,74.143a.378.378,0,0,0,.268.114h0a.377.377,0,0,0,.266-.11l1.869-1.861a.374.374,0,0,0,0-.531.378.378,0,0,0-.533,0" transform="translate(-69.799 -61.41)" fill="#666" stroke="#666" stroke-width="0.4" fill-rule="evenodd"/>
</svg>
