<svg xmlns="http://www.w3.org/2000/svg" width="15.941" height="15.952" viewBox="0 0 15.941 15.952">
  <g id="ERP_icon" transform="translate(-55.174 -505.047)">
    <path id="Path_5333" data-name="Path 5333" d="M-723.833,600h2.617c.13.523.256,1.047.392,1.568a.259.259,0,0,0,.133.142c.192.089.4.157.586.248a.269.269,0,0,0,.3-.012c.44-.273.887-.535,1.314-.791l1.854,1.853c-.266.445-.543.9-.811,1.362a.256.256,0,0,0-.011.193c.079.214.18.419.257.633a.209.209,0,0,0,.171.15c.468.114.934.239,1.4.346.125.029.151.081.149.2-.007.415,0,.831,0,1.246v.371h.926v8.443H-730.5v-8.443h.937V605.74c.057-.016.106-.031.155-.043.457-.114.914-.231,1.372-.341a.244.244,0,0,0,.2-.179,4.552,4.552,0,0,1,.237-.574.241.241,0,0,0-.012-.268c-.274-.445-.54-.9-.808-1.341a.341.341,0,0,1,.031-.046l1.737-1.741c.065-.066.109-.046.173-.008.426.258.852.515,1.281.766a.238.238,0,0,0,.179.021c.228-.084.452-.179.674-.279a.22.22,0,0,0,.112-.125C-724.093,601.056-723.964,600.528-723.833,600Zm-5.724,15h14.06v-6.547h-14.06Zm.932-7.5h3.791a2.374,2.374,0,0,1,2.266-2.807,2.371,2.371,0,0,1,2.358,2.806h3.788c0-.285-.009-.56,0-.833.007-.151-.037-.216-.19-.249-.395-.086-.785-.194-1.178-.288a.2.2,0,0,1-.17-.165,4.689,4.689,0,0,0-.582-1.4.182.182,0,0,1,0-.223c.244-.4.482-.8.713-1.184l-.818-.818c-.386.232-.788.469-1.184.714a.184.184,0,0,1-.224,0,4.7,4.7,0,0,0-1.4-.582.2.2,0,0,1-.166-.171c-.1-.408-.2-.814-.3-1.223-.024-.1-.061-.145-.174-.141-.29.009-.582.007-.872,0a.139.139,0,0,0-.167.129c-.093.4-.2.793-.293,1.193a.259.259,0,0,1-.225.227,4.406,4.406,0,0,0-1.315.546.238.238,0,0,1-.291,0c-.386-.242-.78-.471-1.155-.7l-.814.823c.228.38.462.777.705,1.169a.206.206,0,0,1,0,.25,4.483,4.483,0,0,0-.563,1.358.24.24,0,0,1-.214.2c-.4.1-.805.2-1.207.3-.045.012-.116.057-.116.089-.009.32-.006.641-.006.969Zm6.1.01c.4,0,.8,0,1.2,0a.144.144,0,0,0,.171-.127,1.419,1.419,0,0,0-.556-1.495,1.406,1.406,0,0,0-1.6-.011,1.416,1.416,0,0,0-.572,1.5.143.143,0,0,0,.168.13c.4-.007.8,0,1.2,0Z" transform="translate(785.674 -94.953)" fill="#666"/>
    <path id="Path_5334" data-name="Path 5334" d="M-569.652,828.161a1.542,1.542,0,0,1,.355,1.13c-.012.347,0,.7,0,1.044v.16h-.937v-.166c0-.4,0-.8,0-1.2a.467.467,0,0,0-.493-.5c-.14,0-.28,0-.443,0v1.865h-.927v-4.683c.37,0,.733,0,1.095,0a3.043,3.043,0,0,1,.619.042,1.4,1.4,0,0,1,.811,2.2Zm-1.515-.478c.171,0,.326.006.481,0a.461.461,0,0,0,.448-.433.453.453,0,0,0-.387-.487,4.31,4.31,0,0,0-.542,0Z" transform="translate(633.854 -311.379)" fill="#666"/>
    <path id="Path_5335" data-name="Path 5335" d="M-480.943,828.705v1.877h-.932v-4.656c.009-.007.017-.02.024-.02.534,0,1.071-.027,1.6.025a1.369,1.369,0,0,1,1.184,1.4,1.4,1.4,0,0,1-1.277,1.372C-480.533,828.717-480.725,828.705-480.943,828.705Zm.008-1.863v.931c.163,0,.317,0,.471,0a.461.461,0,0,0,.457-.439.456.456,0,0,0-.406-.487A4.681,4.681,0,0,0-480.936,826.842Z" transform="translate(547.377 -311.469)" fill="#666"/>
    <path id="Path_5336" data-name="Path 5336" d="M-648.912,829.777v.932h-2.331V826.03h2.331v.925H-650.3v.939h.917v.94h-.917v.944Z" transform="translate(709.709 -311.592)" fill="#666"/>
  </g>
</svg>
