<svg xmlns="http://www.w3.org/2000/svg" width="17.001" height="16.998" viewBox="0 0 17.001 16.998">
  <g id="Expand_icon" transform="translate(-1147.5 -403.501)">
    <path id="Path_222" data-name="Path 222" d="M374.49,151.809a.7.7,0,0,0,.721-.247q1.964-1.969,3.933-3.934c.05-.05.1-.1.189-.178.005.105.01.165.01.225,0,.492-.007.985,0,1.477a.655.655,0,1,0,1.31.016q.013-1.665,0-3.331a.648.648,0,0,0-.645-.652q-1.674-.013-3.348,0a.658.658,0,1,0,.055,1.313c.481.007.961,0,1.442,0h.236c-.073.082-.1.121-.14.156l-3.205,3.205c-.291.291-.592.575-.869.879A.646.646,0,0,0,374.49,151.809Z" transform="translate(783.338 258.822)" fill="#666" stroke="rgba(0,0,0,0)" stroke-width="1"/>
    <path id="Path_223" data-name="Path 223" d="M107.738,417.333a1.4,1.4,0,0,0-.248.21q-1.968,1.965-3.934,3.932c-.043.043-.089.084-.174.165,0-.116,0-.182,0-.247,0-.521.006-1.042-.016-1.562a.613.613,0,0,0-.631-.579.649.649,0,0,0-.668.71q0,1.614,0,3.227a.66.66,0,0,0,.715.7c.618,0,1.236,0,1.854,0,.464,0,.927,0,1.391,0a.657.657,0,1,0-.029-1.311c-.475-.007-.95,0-1.425,0h-.2l-.008-.047c.039-.041.076-.083.116-.123l2.864-2.865c.4-.4.815-.8,1.207-1.221a.618.618,0,0,0,.007-.845A.636.636,0,0,0,107.738,417.333Z" transform="translate(1045.934 -3.895)" fill="#666" stroke="rgba(0,0,0,0)" stroke-width="1"/>
    <path id="Path_224" data-name="Path 224" d="M380.659,419.974a.657.657,0,1,0-1.312.053c-.005.481,0,.962,0,1.442,0,.059-.006.117-.012.218-.076-.071-.122-.112-.165-.154l-2.647-2.646c-.461-.461-.919-.927-1.387-1.381a.65.65,0,0,0-1.1.293.7.7,0,0,0,.246.706q1.654,1.648,3.3,3.3c.262.262.529.519.794.779l-.025.056h-.2c-.492,0-.985-.009-1.476.006a.646.646,0,0,0-.663.664.655.655,0,0,0,.686.643q1.648.007,3.3,0a.644.644,0,0,0,.665-.647Q380.673,421.64,380.659,419.974Z" transform="translate(783.334 -3.955)" fill="#666" stroke="rgba(0,0,0,0)" stroke-width="1"/>
    <path id="Path_225" data-name="Path 225" d="M102.057,149.094a.678.678,0,0,0,.453.7.657.657,0,0,0,.859-.675c.01-.486,0-.973,0-1.459,0-.06.006-.12.011-.207.059.05.1.076.127.108l2.537,2.538c.5.5,1,1.008,1.506,1.5a.657.657,0,1,0,.921-.933q-1.57-1.574-3.144-3.144c-.327-.326-.662-.645-.994-.967l.034-.066h.182c.492,0,.985.008,1.477,0a.634.634,0,0,0,.669-.654.647.647,0,0,0-.671-.658q-1.657-.011-3.314,0a.659.659,0,0,0-.656.66c-.005.154,0,.309,0,.464Q102.056,147.695,102.057,149.094Z" transform="translate(1045.945 258.834)" fill="#666" stroke="rgba(0,0,0,0)" stroke-width="1"/>
  </g>
</svg>
