<svg xmlns="http://www.w3.org/2000/svg" width="18.064" height="18.062" viewBox="0 0 18.064 18.062">
  <g id="Export_icon" transform="translate(-1103.74 -403)">
    <path id="Path_226" data-name="Path 226" d="M121.128,75.484a.645.645,0,0,0-.645.645v9.354H106.29V71.29h9.354a.645.645,0,1,0,0-1.29h-10a.645.645,0,0,0-.645.645V86.128a.645.645,0,0,0,.645.645h15.483a.645.645,0,0,0,.645-.645v-10a.645.645,0,0,0-.645-.645Z" transform="translate(998.74 334.289)" fill="#666"/>
    <path id="Path_227" data-name="Path 227" d="M341.075,35.19a.645.645,0,0,0-.455-.19h-4.193a.645.645,0,1,0,0,1.29h2.635l-7.283,7.287a.645.645,0,1,0,.91.91l7.287-7.283v2.635a.645.645,0,1,0,1.29,0V35.645a.645.645,0,0,0-.19-.455Z" transform="translate(780.539 368)" fill="#666"/>
  </g>
</svg>
