<svg xmlns="http://www.w3.org/2000/svg" width="17.25" height="22.926" viewBox="0 0 17.25 22.926">
  <g id="JPG_icon" transform="translate(-109.809 -639.074)">
    <path id="Path_384" data-name="Path 384" d="M56.439,121.153a1.429,1.429,0,0,0-.8-.153H55v1.617h.756a.974.974,0,0,0,.743-.232.921.921,0,0,0,.2-.637A.669.669,0,0,0,56.439,121.153Z" transform="translate(62.221 534.396)" fill="#1382cc"/>
    <path id="Path_393" data-name="Path 393" d="M17.175,3.807h.012L13.342-.05V-.1h-.074l-.016-.016L13.237-.1H1.325A1.329,1.329,0,0,0,0,1.246V21.461a1.329,1.329,0,0,0,1.325,1.348H15.88a1.367,1.367,0,0,0,1.37-1.348V3.807ZM5.66,18.41a1.75,1.75,0,0,1-.484,1.311A1.643,1.643,0,0,1,4,20.156a2.1,2.1,0,0,1-1.55-.68l.564-.785a1.265,1.265,0,0,0,.923.477.469.469,0,0,0,.371-.179.768.768,0,0,0,.139-.536V16.205H3.1v-.943H5.66ZM9.7,18.336a2.572,2.572,0,0,1-1.615.43H7.412v1.348H6.334V15.262H8.07a2.522,2.522,0,0,1,1.643.415,1.654,1.654,0,0,1,.515,1.338A1.58,1.58,0,0,1,9.7,18.336Zm5.26,1.021a2.665,2.665,0,0,1-2.026.813,2.5,2.5,0,0,1-1.815-.715,2.588,2.588,0,0,1,.011-3.623,2.483,2.483,0,0,1,1.8-.729,2.664,2.664,0,0,1,1.832.694l-.568.82a2.172,2.172,0,0,0-.606-.4,1.629,1.629,0,0,0-.6-.108,1.435,1.435,0,0,0-1.051.424,1.692,1.692,0,0,0-.018,2.228,1.364,1.364,0,0,0,1,.417,2,2,0,0,0,.964-.217V17.553h1.078Zm-.292-15.55a1.329,1.329,0,0,1-1.325-1.348V.522L16.6,3.807Z" transform="translate(109.809 639.191)" fill="#1382cc"/>
  </g>
</svg>
