<svg xmlns="http://www.w3.org/2000/svg" width="16" height="16" viewBox="0 0 16 16">
  <path id="Message_Icon" d="M117.508,84.807l3.023-3.023h9.608a1.689,1.689,0,0,0,1.684-1.684V72.52a1.689,1.689,0,0,0-1.684-1.684H119.192a1.689,1.689,0,0,0-1.684,1.684V84.807m0,1.187h-.842V72.52a2.523,2.523,0,0,1,2.526-2.526H130.14a2.523,2.523,0,0,1,2.526,2.526V80.1a2.523,2.523,0,0,1-2.526,2.526h-9.263l-3.368,3.368m2.526-12.632H129.3V74.2h-9.263v-.842m0,2.526H129.3v.842h-9.263v-.842m0,2.526h6.737v.842h-6.737Z" transform="translate(-116.666 -69.994)" fill="#666"/>
</svg>
