<svg xmlns="http://www.w3.org/2000/svg" width="10.527" height="16.187" viewBox="0 0 10.527 16.187">
  <g id="Sort_icon" transform="translate(-175.737 -458.397)">
    <path id="Path_369" data-name="Path 369" d="M201.749,62.4a.37.37,0,0,0,.52,0l2.31-2.31V72.415a.367.367,0,0,0,.733,0V58.323l-3.548,3.548a.371.371,0,0,0-.016.532Z" transform="translate(-25.656 400.678)" fill="#154787" stroke="#154787" stroke-width="0.5"/>
    <path id="Path_370" data-name="Path 370" d="M393.348,84.118a.37.37,0,0,0-.52,0l-2.31,2.31V74.106a.367.367,0,0,0-.733,0V88.2l3.548-3.548a.371.371,0,0,0,.016-.532Z" transform="translate(-207.439 385.783)" fill="#154787" stroke="#154787" stroke-width="0.5"/>
  </g>
</svg>
