<svg xmlns="http://www.w3.org/2000/svg" width="57.064" height="57.072" viewBox="0 0 57.064 57.072">
  <g id="create_quote_new_icon_Blue" data-name="create quote_new icon_Blue" transform="translate(-730.73 -246.207)">
    <path id="Path_4542" data-name="Path 4542" d="M731.23,301.56V247.911l1.2-1.2h26.386c.431.352.9.67,1.289,1.061q6.611,6.587,13.21,13.186a2.474,2.474,0,0,1,.784,1.9c-.021,3.229-.009,6.459-.009,9.688v.636c.549.094,1.019.156,1.479.259a11.732,11.732,0,0,1,1.422.389c5.666,2.044,9.131,6,10.094,11.965a14.022,14.022,0,0,1-3.416,11.8,14.551,14.551,0,0,1-11.538,5.181q-19.349,0-38.7.016A2.114,2.114,0,0,1,731.23,301.56Zm3.324-51.542v49.42h28.488c-4.711-4.32-6.58-9.557-4.77-15.69,1.815-6.149,6.248-9.539,12.491-10.607v-9.073h-.693q-5.665,0-11.33,0c-1.4,0-2-.605-2-2q0-5.72,0-11.44v-.611Zm37.922,49.46A11.55,11.55,0,1,0,760.9,287.94,11.591,11.591,0,0,0,772.476,299.478Zm-4.292-38.727-8.134-8.134v8.134Z" transform="translate(0 0)" fill="#154787" stroke="rgba(0,0,0,0)" stroke-width="1"/>
    <path id="Path_4543" data-name="Path 4543" d="M732.434,246.707l-1.2,1.2v-1.2Z" transform="translate(0 0)" fill="#fff" stroke="rgba(0,0,0,0)" stroke-width="1"/>
    <path id="Path_4545" data-name="Path 4545" d="M992.242,507.725c0-1-.042-1.924.011-2.845a1.592,1.592,0,0,1,2.031-1.488,1.534,1.534,0,0,1,1.183,1.348c.053.6.034,1.2.042,1.8,0,.362,0,.725,0,1.182.344,0,.645,0,.945,0,.674.009,1.352-.018,2.021.042a1.611,1.611,0,0,1,0,3.2c-.706.061-1.42.033-2.131.043-.252,0-.5,0-.841,0,0,.537,0,1.021,0,1.506s.013.95-.033,1.42a1.615,1.615,0,0,1-3.218-.022c-.053-.726-.026-1.457-.034-2.186,0-.214,0-.429,0-.72-.912,0-1.763.013-2.613,0a1.659,1.659,0,0,1-1.7-1.124,1.614,1.614,0,0,1,1.42-2.128c.47-.045.947-.024,1.421-.028C991.21,507.722,991.665,507.725,992.242,507.725Z" transform="translate(-221.416 -221.439)" fill="#154787" stroke="rgba(0,0,0,0)" stroke-width="1"/>
  </g>
</svg>
