<svg xmlns="http://www.w3.org/2000/svg" width="56.073" height="56.072" viewBox="0 0 56.073 56.072">
  <g id="create_quote_existing_icon_Grey" data-name="create quote_existing icon_Grey" transform="translate(-107.33 -37.334)">
    <path id="Path_4538" data-name="Path 4538" d="M109.494,63.213h21.566a2.156,2.156,0,0,0,2.157-2.157V39.491a2.156,2.156,0,0,0-2.157-2.157H109.495a2.156,2.156,0,0,0-2.157,2.157V61.057a2.156,2.156,0,0,0,2.157,2.156Zm2.157-21.565H128.9V58.9H111.651Z" transform="translate(-0.007)" fill="#666"/>
    <path id="Path_4539" data-name="Path 4539" d="M370.819,63.213h21.566a2.156,2.156,0,0,0,2.157-2.157V39.491a2.156,2.156,0,0,0-2.157-2.157H370.819a2.156,2.156,0,0,0-2.157,2.157V61.057a2.157,2.157,0,0,0,2.157,2.156Zm2.157-21.565h17.252V58.9H372.976Z" transform="translate(-231.14)" fill="#666"/>
    <path id="Path_4540" data-name="Path 4540" d="M107.33,322.385a2.155,2.155,0,0,0,2.157,2.157h21.566a2.155,2.155,0,0,0,2.157-2.157V300.819a2.155,2.155,0,0,0-2.157-2.157H109.487a2.155,2.155,0,0,0-2.157,2.157Zm4.314-19.409H128.9v17.252H111.644Z" transform="translate(0 -231.136)" fill="#666"/>
    <path id="Path_4541" data-name="Path 4541" d="M370.819,313.755h8.627v8.627a2.157,2.157,0,1,0,4.313,0v-8.627h8.627a2.157,2.157,0,1,0,0-4.314h-8.627v-8.627a2.157,2.157,0,1,0-4.313,0v8.627h-8.627a2.157,2.157,0,0,0,0,4.314Z" transform="translate(-231.14 -231.133)" fill="#666"/>
  </g>
</svg>
