<svg xmlns="http://www.w3.org/2000/svg" width="17.024" height="16.361" viewBox="0 0 17.024 16.361">
  <g id="date_Range_Calendar_Icon" data-name="date Range_Calendar Icon" transform="translate(-84.005 -24.082)">
    <path id="Path_603" data-name="Path 603" d="M98.916,25.353h-2.2v-.465a.806.806,0,1,0-1.611,0v.465H89.894v-.465a.806.806,0,1,0-1.611,0v.465H86.1A2.1,2.1,0,0,0,84,27.447v10.9A2.1,2.1,0,0,0,86.1,40.443H98.934a2.1,2.1,0,0,0,2.094-2.094v-10.9a2.112,2.112,0,0,0-2.112-2.094ZM86.1,26.964h2.2v.465a.806.806,0,1,0,1.611,0v-.465h5.209v.465a.806.806,0,0,0,1.611,0v-.465h2.2a.481.481,0,0,1,.483.483v2.13h-13.8v-2.13a.481.481,0,0,1,.483-.483ZM98.916,38.832H86.1a.481.481,0,0,1-.483-.483V31.171h13.8v7.178a.509.509,0,0,1-.5.483Z" transform="translate(0 0)" fill="#7d7d7d"/>
  </g>
</svg>
