<svg xmlns="http://www.w3.org/2000/svg" width="35" height="35" viewBox="0 0 35 35">
  <g id="emil_pad_Psd_icon" data-name="emil pad_Psd icon" transform="translate(-65 -697)">
    <g id="Group_94" data-name="Group 94" transform="translate(-1099.751 80.049)">
      <g id="attachfile-jpg">
        <circle id="Ellipse_1" data-name="Ellipse 1" cx="17.5" cy="17.5" r="17.5" transform="translate(1164.751 616.951)" fill="#ecf4ff"/>
      </g>
    </g>
    <g id="noun-psd-484727" transform="translate(-61.691 706.149)">
      <path id="Path_4647" data-name="Path 4647" d="M242.97,345.99h-1.047V348.3h.439v-.747h.618a.928.928,0,0,0,.63-.153.881.881,0,0,0,.156-.617.644.644,0,0,0-.8-.8Zm.27,1.129a.662.662,0,0,1-.379.069h-.5v-.827h.544c.188,0,.3.023.348.07a.6.6,0,0,1,.067.363C243.321,346.964,243.294,347.072,243.24,347.118Z" transform="translate(-100.434 -336.186)" fill="#154787"/>
      <path id="Path_4648" data-name="Path 4648" d="M314.564,346.28a1.756,1.756,0,0,1-.515-.068q-.078-.044-.078-.262a.26.26,0,0,1,.1-.242.914.914,0,0,1,.407-.058.691.691,0,0,1,.336.051c.048.034.076.115.087.245a.47.47,0,0,0,0,.048h.428V345.9a.55.55,0,0,0-.181-.483,2.063,2.063,0,0,0-1.438.011.639.639,0,0,0-.184.54.649.649,0,0,0,.153.517,1.433,1.433,0,0,0,.7.153l.243.015a.477.477,0,0,1,.267.067.3.3,0,0,1,.062.223c0,.152-.027.248-.081.29a.707.707,0,0,1-.376.063,1.135,1.135,0,0,1-.463-.054c-.056-.036-.085-.135-.085-.3v-.05h-.427v.085a.637.637,0,0,0,.179.535,1.336,1.336,0,0,0,.724.132,1.482,1.482,0,0,0,.784-.134q.178-.135.178-.6a.613.613,0,0,0-.152-.493A1.339,1.339,0,0,0,314.564,346.28Z" transform="translate(-170 -335.513)" fill="#154787"/>
      <path id="Path_4649" data-name="Path 4649" d="M391.328,345.99h-1.137V348.3h1.15q.547,0,.7-.246a2.486,2.486,0,0,0,.156-1.113,1.1,1.1,0,0,0-.195-.742.89.89,0,0,0-.678-.212Zm.335,1.8c-.061.1-.2.145-.408.145h-.625v-1.574h.652c.2,0,.335.046.39.138a1.568,1.568,0,0,1,.082.651,1.4,1.4,0,0,1-.092.641Z" transform="translate(-244.501 -336.186)" fill="#154787"/>
      <path id="Path_4650" data-name="Path 4650" d="M150.542,3.317,147.226,0H138.56V15.867h11.982V3.317Zm-3.107-1.7,1.5,1.5h-1.5Zm-7.884,13.263V.992h6.892V4.1h3.107V14.876Z" fill="#154787"/>
    </g>
  </g>
</svg>
