<svg xmlns="http://www.w3.org/2000/svg" width="35" height="35" viewBox="0 0 35 35">
  <g id="emil_pad_Pdf_icon" data-name="emil pad_Pdf icon" transform="translate(-82.498 -541)">
    <g id="Group_94" data-name="Group 94" transform="translate(-1082.502 -76)">
      <g id="attachfile-jpg">
        <circle id="Ellipse_1" data-name="Ellipse 1" cx="17.5" cy="17.5" r="17.5" transform="translate(1165 617)" fill="#ecf4ff"/>
      </g>
    </g>
    <g id="noun-pdf-file-1255611" transform="translate(-43.701 547.906)">
      <path id="Path_4641" data-name="Path 4641" d="M146.919,1.8V4.959a.354.354,0,0,0,.354.354h3.167V18.473H137.908V1.8Zm4.229,3.147V4.935a.332.332,0,0,0-.006-.045h0a.376.376,0,0,0-.012-.044l0-.011a.367.367,0,0,0-.017-.04v0a.378.378,0,0,0-.024-.039l-.007-.01a.358.358,0,0,0-.03-.035h0L147.523,1.2h0a.345.345,0,0,0-.035-.03l-.01-.007a.342.342,0,0,0-.039-.024h0a.346.346,0,0,0-.04-.017l-.011,0a.372.372,0,0,0-.044-.012h0a.357.357,0,0,0-.045-.006h-9.743a.354.354,0,0,0-.354.353v17.38a.354.354,0,0,0,.354.354h13.24a.354.354,0,0,0,.354-.354V4.959s0-.008,0-.012Zm-9.407,5.832a.446.446,0,0,0,.294-.082.315.315,0,0,0,.1-.253q0-.338-.39-.338h-.515v.673ZM140.6,12.235a.349.349,0,0,1-.1-.259V9.9a.3.3,0,0,1,.331-.33h1a1.014,1.014,0,0,1,.71.231.939.939,0,0,1,0,1.285,1.01,1.01,0,0,1-.708.233h-.612v.661a.345.345,0,0,1-.1.259.362.362,0,0,1-.265.1.35.35,0,0,1-.259-.1Zm3.611-.5a.829.829,0,0,0,.6-.2.806.806,0,0,0,.2-.6.8.8,0,0,0-.2-.6.834.834,0,0,0-.6-.194h-.351v1.59Zm-.982.49a.331.331,0,0,1-.086-.245V9.9a.3.3,0,0,1,.331-.33h.787a1.733,1.733,0,0,1,.785.165,1.17,1.17,0,0,1,.5.472,1.449,1.449,0,0,1,.175.731,1.482,1.482,0,0,1-.173.737,1.145,1.145,0,0,1-.5.472,1.76,1.76,0,0,1-.789.163h-.787a.333.333,0,0,1-.246-.085Zm3.025.012a.347.347,0,0,1-.1-.257V9.9a.3.3,0,0,1,.331-.33h1.31a.4.4,0,0,1,.257.068.265.265,0,0,1,.082.216.251.251,0,0,1-.084.21.408.408,0,0,1-.255.066h-.936v.505h.858a.393.393,0,0,1,.255.07.263.263,0,0,1,.084.214.251.251,0,0,1-.084.21.408.408,0,0,1-.255.066h-.858v.785a.349.349,0,0,1-.1.259.389.389,0,0,1-.513,0" fill="#154787" fill-rule="evenodd"/>
    </g>
  </g>
</svg>
