<svg xmlns="http://www.w3.org/2000/svg" width="18.056" height="18.056" viewBox="0 0 18.056 18.056">
  <g id="Error_icon" transform="translate(-13259.889 -7541)">
    <path id="Path_4644" data-name="Path 4644" d="M200.448,121.42a9.028,9.028,0,1,0,9.028,9.028A9.028,9.028,0,0,0,200.448,121.42Zm0,16.669a7.641,7.641,0,1,1,7.641-7.641A7.652,7.652,0,0,1,200.448,138.089Z" transform="translate(13068.469 7419.58)" fill="red"/>
    <path id="Path_4645" data-name="Path 4645" d="M339.643,198.034a.693.693,0,0,0,.693-.693v-6.318a.693.693,0,0,0-1.387,0v6.318A.693.693,0,0,0,339.643,198.034Z" transform="translate(12929.337 7354.593)" fill="red"/>
    <path id="Path_4646" data-name="Path 4646" d="M339.939,347.586a.719.719,0,1,1-.719-.719.719.719,0,0,1,.719.719" transform="translate(12929.762 7206.968)" fill="red"/>
  </g>
</svg>
