<svg xmlns="http://www.w3.org/2000/svg" width="18.056" height="18.056" viewBox="0 0 18.056 18.056">
  <g id="Uploaded_icon" transform="translate(-202.737 -132.739)">
    <path id="Path_4642" data-name="Path 4642" d="M211.765,132.739a9.039,9.039,0,1,0,6.381,2.647,9.028,9.028,0,0,0-6.381-2.647Zm0,16.983a7.971,7.971,0,1,1,5.62-2.335A7.956,7.956,0,0,1,211.765,149.722Z" fill="#187d35"/>
    <path id="Path_4643" data-name="Path 4643" d="M292.491,232.016l-4.4,4.383-1.668-1.668a.537.537,0,0,0-.762.756l2.054,2.054a.537.537,0,0,0,.756,0l4.785-4.785a.539.539,0,0,0-.762-.762Z" transform="translate(-77.691 -93.023)" fill="#187d35"/>
  </g>
</svg>
